<svg width="128.796143" height="25.832031" viewBox="0 0 128.796 25.832" fill="none" xmlns="http://www.w3.org/2000/svg" xmlns:xlink="http://www.w3.org/1999/xlink">
	<desc>
			Created with Pixso.
	</desc>
	<defs/>
	<path id="Combined Shape" d="M25.7467 12.9153C25.7467 20.0488 19.9837 25.832 12.8733 25.832C5.763 25.832 0 20.0488 0 12.9153C0 5.78296 5.763 0 12.8733 0C19.9837 0 25.7467 5.78296 25.7467 12.9153ZM12.9926 2.87036C7.39717 2.87036 2.86101 7.42139 2.86101 13.0352C2.86101 18.6489 7.39717 23.2009 12.9926 23.2009L12.9926 20.6594C8.79634 20.6594 5.39423 17.2463 5.39423 13.0352C5.39423 8.82495 8.79634 5.41187 12.9926 5.41187C17.1902 5.41187 20.5911 8.82495 20.5911 13.0352L23.1243 13.0352C23.1243 7.42139 18.5881 2.87036 12.9926 2.87036ZM12.9926 19.1348C9.63512 19.1348 6.91391 16.4036 6.91391 13.0352C6.91391 9.6665 9.63512 6.93652 12.9926 6.93652C16.3502 6.93652 19.0714 9.6665 19.0714 13.0352L16.8612 13.0352C16.8612 10.8914 15.1294 9.15381 12.9926 9.15381C10.8559 9.15381 9.12415 10.8914 9.12415 13.0352C9.12415 15.1787 10.8559 16.9163 12.9926 16.9163L12.9926 19.1348Z" clip-rule="evenodd" fill="#5A668A" fill-opacity="1.000000" fill-rule="evenodd"/>
	<path id="Shape" d="M34.0164 20.1096L34.0164 6.04443L37.8222 6.04443C41.246 6.04443 43.0887 7.67188 43.0887 10.928C43.0887 14.5647 40.9062 16.0713 37.9017 16.0713L37.1196 16.0713L37.1196 20.1096L34.0164 20.1096ZM40.0047 11.0271C40.0047 12.7354 39.2635 13.5396 37.7812 13.5396L37.1003 13.5396L37.1003 8.61621L37.8222 8.61621C39.2635 8.61621 40.0047 9.27881 40.0047 11.0271Z" clip-rule="evenodd" fill="#5A668A" fill-opacity="1.000000" fill-rule="evenodd"/>
	<path id="Shape" d="M43.3876 14.9263C43.3876 18.4819 45.27 20.3113 47.6345 20.3113C49.9978 20.3113 51.9007 18.4626 51.9007 14.885C51.9007 11.3291 49.9978 9.48047 47.6538 9.48047C45.2905 9.48047 43.3876 11.3291 43.3876 14.9263ZM46.1522 14.885C46.1522 12.9167 46.7126 11.9519 47.614 11.9519C48.5347 11.9519 49.1361 12.9167 49.1361 14.9055C49.1361 16.8752 48.5552 17.8594 47.6538 17.8594C46.733 17.8594 46.1522 16.8752 46.1522 14.885Z" clip-rule="evenodd" fill="#5A668A" fill-opacity="1.000000" fill-rule="evenodd"/>
	<path id="Path" d="M57 20.27C54.22 20.27 52.57 18.32 52.57 14.92C52.57 11.6 54.26 9.52 57.16 9.52C58.08 9.52 58.78 9.7 59.46 9.96L59.02 12.49C58.54 12.27 57.98 12.09 57.4 12.09C56.06 12.09 55.36 13.25 55.36 14.88C55.36 16.65 56.06 17.69 57.44 17.69C57.96 17.69 58.5 17.53 59.08 17.31L59.52 19.74C58.82 20.04 57.9 20.27 57 20.27Z" fill="#5A668A" fill-opacity="1.000000" fill-rule="nonzero"/>
	<path id="Path" d="M63.47 15.12L63.47 20.11L60.56 20.11L60.56 5.62L63.47 5.62L63.47 14.2L65.83 9.7L69.02 9.7L66.19 14.68L69.1 20.11L65.87 20.11L63.47 15.12Z" fill="#5A668A" fill-opacity="1.000000" fill-rule="nonzero"/>
	<path id="Shape" d="M68.7185 14.9456C68.7185 11.3691 70.5419 9.48047 72.8461 9.48047C75.289 9.48047 76.9316 11.3484 76.9316 15.0059L76.9316 15.9502L71.4229 15.9502C71.5241 17.377 72.305 18.0806 73.5861 18.0806C74.3477 18.0806 75.2492 17.8389 76.0699 17.458L76.5905 19.5073C75.589 20.009 74.408 20.2715 73.286 20.2715C70.7419 20.2715 68.7185 18.9246 68.7185 14.9456ZM72.8461 11.7112C73.7259 11.7112 74.1875 12.635 74.2477 14.2019L71.4229 14.2019C71.4831 12.6748 71.9435 11.7112 72.8461 11.7112Z" clip-rule="evenodd" fill="#5A668A" fill-opacity="1.000000" fill-rule="evenodd"/>
	<path id="Path" d="M78.49 16.99L78.49 12.09L77.37 12.09L77.37 9.7L78.49 9.7L78.49 6.96L81.37 6.96L81.37 9.7L83.57 9.7L83.57 12.09L81.37 12.09L81.37 16.57C81.37 17.43 81.83 17.79 82.61 17.79C82.95 17.79 83.25 17.73 83.57 17.65L83.57 20.02C83.13 20.16 82.51 20.25 81.79 20.25C79.59 20.25 78.49 19.34 78.49 16.99Z" fill="#5A668A" fill-opacity="1.000000" fill-rule="nonzero"/>
	<path id="Path" d="M93.33 20.27C89.68 20.27 87.4 17.94 87.4 13.09C87.4 8.43 89.74 5.88 93.35 5.88C94.55 5.88 95.55 6.12 96.33 6.42L95.85 9.27C95.23 9.01 94.51 8.77 93.65 8.77C91.72 8.77 90.58 10.3 90.58 13.05C90.58 15.88 91.66 17.37 93.71 17.37C94.49 17.37 95.23 17.17 95.87 16.89L96.37 19.66C95.51 20.02 94.45 20.27 93.33 20.27Z" fill="#5A668A" fill-opacity="1.000000" fill-rule="nonzero"/>
	<path id="Shape" d="M99.6979 20.251C98.0758 20.251 96.9345 19.2063 96.9345 16.9551C96.9345 15.9504 97.2153 15.1077 97.7564 14.584C98.3361 13.9807 99.1978 13.6797 100.499 13.6797C101.061 13.6797 101.621 13.7607 102.102 13.8611L102.102 13.2783C102.102 12.3945 101.701 11.9121 100.62 11.9121C99.7786 11.9121 98.8772 12.1526 98.0758 12.4949L97.5359 10.2847C98.5771 9.86255 99.7991 9.54102 101.14 9.54102C103.764 9.54102 104.946 10.6655 104.946 13.0571L104.946 18.2622L105.167 20.1108L102.643 20.1108L102.283 19.2063C101.521 19.8689 100.78 20.251 99.6979 20.251ZM102.102 15.428L102.102 17.9006C101.721 18.1206 101.301 18.2815 100.899 18.2815C100.099 18.2815 99.6389 17.8594 99.6389 16.8149C99.6389 16.2925 99.7594 15.9309 99.9787 15.6892C100.22 15.468 100.56 15.3481 101.161 15.3481C101.501 15.3481 101.821 15.3677 102.102 15.428Z" clip-rule="evenodd" fill="#5A668A" fill-opacity="1.000000" fill-rule="evenodd"/>
	<path id="Path" d="M109.77 20.29C108.36 20.29 107.06 19.92 105.94 19.32L106.52 16.97C107.62 17.57 108.72 17.94 109.73 17.94C110.47 17.94 110.87 17.61 110.87 17.17C110.87 16.73 110.63 16.53 109.23 15.97C107.28 15.18 106.32 14.44 106.32 12.69C106.32 10.76 107.64 9.52 109.97 9.52C111.15 9.52 112.23 9.8 113.21 10.28L112.63 12.63C111.73 12.17 110.81 11.87 109.97 11.87C109.35 11.87 109.01 12.13 109.01 12.55C109.01 12.95 109.23 13.15 110.61 13.72C112.79 14.58 113.55 15.38 113.55 17.03C113.55 19.2 112.03 20.29 109.77 20.29Z" fill="#5A668A" fill-opacity="1.000000" fill-rule="nonzero"/>
	<path id="Path" d="M115.21 16.99L115.21 12.09L114.09 12.09L114.09 9.7L115.21 9.7L115.21 6.96L118.1 6.96L118.1 9.7L120.3 9.7L120.3 12.09L118.1 12.09L118.1 16.57C118.1 17.43 118.56 17.79 119.34 17.79C119.68 17.79 119.98 17.73 120.3 17.65L120.3 20.02C119.86 20.16 119.24 20.25 118.52 20.25C116.31 20.25 115.21 19.34 115.21 16.99Z" fill="#5A668A" fill-opacity="1.000000" fill-rule="nonzero"/>
	<mask id="mask31_619" mask-type="alpha" maskUnits="userSpaceOnUse" x="120.938599" y="9.284668" width="7.857536" height="11.142822">
		<path id="Path" d="M120.93 9.28L128.79 9.28L128.79 20.42L120.93 20.42L120.93 9.28Z" fill="#000000" fill-opacity="1.000000" fill-rule="evenodd"/>
	</mask>
	<g mask="url(#mask31_619)">
		<path id="Path" d="M125.01 20.29C123.6 20.29 122.3 19.92 121.18 19.32L121.76 16.97C122.86 17.57 123.96 17.94 124.97 17.94C125.71 17.94 126.11 17.61 126.11 17.17C126.11 16.73 125.87 16.53 124.47 15.97C122.52 15.18 121.56 14.44 121.56 12.69C121.56 10.76 122.88 9.52 125.21 9.52C126.39 9.52 127.47 9.8 128.45 10.28L127.87 12.63C126.97 12.17 126.05 11.87 125.21 11.87C124.59 11.87 124.24 12.13 124.24 12.55C124.24 12.95 124.47 13.15 125.85 13.72C128.03 14.58 128.79 15.38 128.79 17.03C128.79 19.2 127.27 20.29 125.01 20.29Z" fill="#5A668A" fill-opacity="1.000000" fill-rule="nonzero"/>
	</g>
</svg>
