<svg width="78.000000" height="29.000000" viewBox="0 0 78 29" fill="none" xmlns="http://www.w3.org/2000/svg" xmlns:xlink="http://www.w3.org/1999/xlink">
	<desc>
			Created with Pixso.
	</desc>
	<defs/>
	<path id="Combined Shape" d="M13.08 16.35C13.26 16.35 13.44 16.36 13.61 16.37L13.62 16.36C13.84 16.39 14.27 16.45 14.67 16.58C15.08 16.7 15.44 16.9 15.73 17.1C16 17.3 16.2 17.51 16.33 17.76C16.46 18.01 16.52 18.31 16.56 18.81C16.58 19.3 16.58 19.98 16.47 21.26C16.35 22.54 16.13 24.4 15.95 25.6C15.78 26.8 15.65 27.33 15.49 27.72C15.32 28.12 15.11 28.38 14.87 28.57C14.63 28.76 14.35 28.87 14.09 28.93C13.83 29 13.59 29 13.36 29C13.13 29 12.92 29 12.63 28.93C12.34 28.87 11.96 28.76 11.69 28.53C11.57 28.44 11.46 28.32 11.37 28.19C10.89 27.7 10.67 26.77 10.35 24.55C9.82 20.86 9.7 18.58 10.01 17.86C10.42 16.9 11.53 16.36 13.08 16.35ZM13.09 0C16.73 0 20.02 1.4 22.53 4.02C24.43 5.99 25.5 8.08 26.05 10.84C26.24 11.76 26.24 14.26 26.06 15.29C25.49 18.55 23.67 21.52 21.02 23.52C20.07 24.23 17.75 25.48 17.38 25.48C17.24 25.48 17.23 25.34 17.29 24.76C17.4 23.84 17.52 23.65 18.04 23.43C18.87 23.08 20.3 22.08 21.17 21.2C22.68 19.71 23.78 17.76 24.29 15.71C24.62 14.43 24.58 11.58 24.22 10.26C23.09 6.07 19.66 2.82 15.46 1.95C14.24 1.7 12.02 1.7 10.79 1.95C6.54 2.82 3.03 6.24 1.95 10.54C1.67 11.71 1.67 14.55 1.95 15.72C2.66 18.57 4.51 21.18 6.93 22.73C7.4 23.04 7.97 23.37 8.21 23.47C8.73 23.69 8.84 23.88 8.94 24.8C9.01 25.35 8.99 25.52 8.86 25.52C8.77 25.52 8.13 25.24 7.46 24.92L7.4 24.87C3.55 22.98 1.08 19.79 0.19 15.53C-0.04 14.44 -0.08 11.82 0.14 10.81C0.7 8.11 1.77 5.99 3.55 4.12C6.12 1.42 9.42 0 13.09 0ZM42.47 17.31C44.36 17.31 45.52 18.56 45.52 20.62C45.52 22.69 44.37 23.93 42.47 23.93C40.57 23.93 39.42 22.69 39.42 20.62C39.42 18.57 40.59 17.31 42.47 17.31ZM70.64 17.31C72.15 17.31 73.09 17.98 73.2 19.14L71.85 19.14C71.74 18.69 71.32 18.41 70.65 18.41C69.99 18.41 69.5 18.72 69.5 19.18C69.5 19.54 69.8 19.76 70.44 19.91L71.56 20.16C72.77 20.44 73.33 20.96 73.33 21.9C73.33 23.12 72.21 23.93 70.63 23.93C69.05 23.93 68.05 23.25 67.94 22.09L69.36 22.09C69.5 22.56 69.94 22.84 70.66 22.84C71.39 22.84 71.89 22.52 71.89 22.05C71.89 21.69 71.62 21.46 71.02 21.33L69.89 21.07C68.67 20.79 68.1 20.22 68.1 19.26C68.1 18.11 69.14 17.31 70.64 17.31ZM57.26 17.31C58.89 17.31 59.88 18.24 60.03 19.58L58.66 19.58C58.53 18.97 58.05 18.52 57.26 18.52C56.28 18.52 55.69 19.29 55.69 20.61C55.69 21.95 56.28 22.72 57.26 22.72C58.01 22.72 58.51 22.37 58.66 21.71L60.03 21.71C59.87 23.04 58.88 23.93 57.27 23.93C55.36 23.93 54.24 22.7 54.24 20.61C54.24 18.54 55.36 17.31 57.26 17.31ZM63.97 17.31C65.6 17.31 66.52 18.11 66.52 19.46L66.52 23.81L65.13 23.81L65.13 22.93L65.03 22.93C64.68 23.55 63.98 23.91 63.15 23.91C61.93 23.91 61.05 23.17 61.05 22C61.05 20.85 61.92 20.19 63.46 20.09L65.1 20L65.1 19.46C65.1 18.84 64.68 18.49 63.9 18.49C63.24 18.49 62.79 18.72 62.65 19.15L61.3 19.15C61.41 18.03 62.46 17.31 63.97 17.31ZM52.73 14.98L52.73 23.81L51.34 23.81L51.34 22.8L51.24 22.8C50.88 23.5 50.15 23.91 49.27 23.91C47.67 23.91 46.66 22.64 46.66 20.62C46.66 18.61 47.67 17.34 49.27 17.34C50.14 17.34 50.86 17.76 51.2 18.45L51.3 18.45L51.3 14.98L52.73 14.98ZM76.64 15.88L76.64 17.48L78 17.48L78 18.63L76.64 18.63L76.64 21.76C76.64 22.39 76.9 22.67 77.51 22.67C77.71 22.67 77.82 22.65 78 22.64L78 23.77C77.79 23.81 77.52 23.84 77.24 23.84C75.79 23.84 75.21 23.34 75.21 22.11L75.21 18.63L74.2 18.63L74.2 17.48L75.21 17.48L75.21 15.88L76.64 15.88ZM35.6 15.41C37.27 15.41 38.41 16.56 38.41 18.25C38.41 19.91 37.23 21.05 35.54 21.05L33.72 21.05L33.72 23.81L32.22 23.81L32.22 15.41L35.6 15.41ZM65.1 20.97L63.66 21.06C62.86 21.11 62.48 21.4 62.48 21.92C62.48 22.46 62.94 22.78 63.58 22.78C64.45 22.78 65.1 22.21 65.1 21.47L65.1 20.97ZM42.47 18.52C41.47 18.52 40.9 19.3 40.9 20.62C40.9 21.96 41.47 22.72 42.47 22.72C43.48 22.72 44.05 21.96 44.05 20.62C44.05 19.3 43.47 18.52 42.47 18.52ZM49.72 18.56C48.74 18.56 48.14 19.34 48.14 20.62C48.14 21.91 48.73 22.68 49.72 22.68C50.71 22.68 51.31 21.9 51.31 20.62C51.31 19.36 50.7 18.56 49.72 18.56ZM15.02 4.53C19.36 5.49 22.44 9.82 21.84 14.12C21.6 15.85 21.01 17.27 19.95 18.59C19.42 19.26 18.15 20.38 17.93 20.38C17.89 20.38 17.86 20.03 17.85 19.58L17.85 18.5L18.5 17.73C20.94 14.81 20.77 10.74 18.1 8.06C17.07 7.02 15.87 6.41 14.33 6.13C13.33 5.94 13.12 5.94 12.07 6.11C10.48 6.37 9.25 6.99 8.16 8.07C5.48 10.71 5.31 14.81 7.75 17.73L8.39 18.5L8.39 19.45C8.39 19.97 8.35 20.39 8.3 20.39C8.25 20.39 7.89 20.15 7.5 19.83L7.45 19.82C6.15 18.79 5.01 16.96 4.53 15.16C4.25 14.08 4.25 12.02 4.55 10.93C5.33 8.02 7.49 5.75 10.48 4.69C11.5 4.33 13.77 4.25 15.02 4.53ZM35.21 16.67L33.72 16.67L33.72 19.81L35.2 19.81C36.27 19.81 36.89 19.25 36.89 18.25C36.89 17.22 36.29 16.67 35.21 16.67ZM14.41 9.28C15.58 9.75 16.39 10.87 16.39 12.18C16.39 13.9 14.99 15.3 13.27 15.3C12.14 15.3 11.16 14.7 10.61 13.8L10.55 13.73C10.23 13.25 10.06 12.66 10.05 11.99C10.05 10.85 10.69 9.86 11.79 9.28C12.48 8.92 13.72 8.92 14.41 9.28ZM51.49 5.42C53.1 5.42 54.11 6.67 54.11 8.71C54.11 10.74 53.11 12 51.51 12C50.6 12 49.9 11.6 49.57 10.93L49.47 10.93L49.47 14.01L48.04 14.01L48.04 5.53L49.42 5.53L49.42 6.58L49.52 6.58C49.89 5.86 50.62 5.42 51.49 5.42ZM43.98 5.42C45.58 5.42 46.59 6.67 46.59 8.71C46.59 10.74 45.59 12 43.99 12C43.08 12 42.38 11.6 42.06 10.93L41.96 10.93L41.96 14.01L40.52 14.01L40.52 5.53L41.91 5.53L41.91 6.58L42 6.58C42.37 5.86 43.11 5.42 43.98 5.42ZM61.53 5.4C63.34 5.4 64.43 6.6 64.43 8.61L64.43 9.08L60 9.08L60 9.15C60.03 10.21 60.64 10.87 61.59 10.87C62.3 10.87 62.79 10.61 63 10.14L64.36 10.14C64.1 11.3 63.04 12.02 61.55 12.02C59.68 12.02 58.55 10.78 58.55 8.73C58.55 6.68 59.7 5.4 61.53 5.4ZM57.05 3.07L57.05 11.89L55.61 11.89L55.61 3.07L57.05 3.07ZM36.26 3.5L39.23 11.89L37.62 11.89L36.92 9.74L33.84 9.74L33.12 11.89L31.6 11.89L34.57 3.5L36.26 3.5ZM43.53 6.65C42.55 6.65 41.93 7.44 41.93 8.71C41.93 9.98 42.54 10.77 43.52 10.77C44.52 10.77 45.11 10 45.11 8.71C45.11 7.42 44.52 6.65 43.53 6.65ZM51.05 6.65C50.07 6.65 49.45 7.44 49.45 8.71C49.45 9.98 50.06 10.77 51.04 10.77C52.04 10.77 52.63 10 52.63 8.71C52.63 7.42 52.03 6.65 51.05 6.65ZM35.43 5.1L35.33 5.1L34.19 8.56L36.57 8.56L35.43 5.1ZM61.53 6.54C60.67 6.54 60.07 7.16 60 8.09L62.99 8.09C62.96 7.15 62.39 6.54 61.53 6.54Z" fill="#5A668A" fill-opacity="1.000000" fill-rule="nonzero"/>
</svg>
