<svg width="124.947754" height="17.468018" viewBox="0 0 124.948 17.468" fill="none" xmlns="http://www.w3.org/2000/svg" xmlns:xlink="http://www.w3.org/1999/xlink">
	<desc>
			Created with Pixso.
	</desc>
	<defs/>
	<path id="Shape-8" d="M7.71 11.9L9.92 11.9L9.92 9.26L9.92 8.2L9.92 5.55L7.71 5.55L7.71 8.2L7.71 9.26L7.71 11.9Z" fill="#5A668A" fill-opacity="1.000000" fill-rule="nonzero"/>
	<ellipse id="Oval-0" cx="1.102753" cy="8.138428" rx="1.102741" ry="1.091749" fill="#5A668A" fill-opacity="1.000000"/>
	<ellipse id="ellipse9-9" cx="1.102753" cy="9.329590" rx="1.102741" ry="1.091749" fill="#5A668A" fill-opacity="1.000000"/>
	<rect id="Rectangle-path-8" y="8.138428" width="2.205481" height="1.190999" fill="#5A668A" fill-opacity="1.000000"/>
	<ellipse id="ellipse12-0" cx="16.541107" cy="9.329590" rx="1.102741" ry="1.091749" fill="#5A668A" fill-opacity="1.000000"/>
	<ellipse id="ellipse14-0" cx="16.541107" cy="8.138428" rx="1.102741" ry="1.091749" fill="#5A668A" fill-opacity="1.000000"/>
	<rect id="rect16-5" x="17.643829" y="9.329346" width="2.205481" height="1.190999" transform="rotate(180 17.643829 9.329346)" fill="#5A668A" fill-opacity="1.000000"/>
	<ellipse id="ellipse18-2" cx="4.912201" cy="11.711426" rx="1.102741" ry="1.091749" fill="#5A668A" fill-opacity="1.000000"/>
	<ellipse id="ellipse20-8" cx="4.912201" cy="12.902344" rx="1.102741" ry="1.091749" fill="#5A668A" fill-opacity="1.000000"/>
	<rect id="rect22-6" x="3.809448" y="11.711426" width="2.205481" height="1.190999" fill="#5A668A" fill-opacity="1.000000"/>
	<ellipse id="ellipse24-4" cx="4.912201" cy="4.565430" rx="1.102741" ry="1.091749" fill="#5A668A" fill-opacity="1.000000"/>
	<ellipse id="ellipse26-3" cx="4.912201" cy="8.436035" rx="1.102741" ry="1.091749" fill="#5A668A" fill-opacity="1.000000"/>
	<rect id="rect28-2" x="3.809448" y="4.565430" width="2.205481" height="3.895558" fill="#5A668A" fill-opacity="1.000000"/>
	<ellipse id="ellipse30-7" cx="12.731628" cy="5.756348" rx="1.102741" ry="1.091749" fill="#5A668A" fill-opacity="1.000000"/>
	<ellipse id="ellipse32-9" cx="12.731628" cy="4.565430" rx="1.102741" ry="1.091749" fill="#5A668A" fill-opacity="1.000000"/>
	<rect id="rect34-0" x="13.834381" y="5.756348" width="2.205481" height="1.190999" transform="rotate(180 13.834381 5.756348)" fill="#5A668A" fill-opacity="1.000000"/>
	<ellipse id="ellipse36-4" cx="8.821930" cy="2.282715" rx="1.102741" ry="1.091749" fill="#5A668A" fill-opacity="1.000000"/>
	<ellipse id="ellipse38-1" cx="8.821930" cy="1.091797" rx="1.102741" ry="1.091749" fill="#5A668A" fill-opacity="1.000000"/>
	<rect id="rect40-9" x="9.924652" y="2.282715" width="2.205481" height="1.190999" transform="rotate(180 9.924652 2.282715)" fill="#5A668A" fill-opacity="1.000000"/>
	<ellipse id="ellipse42-1" cx="8.821930" cy="16.376221" rx="1.102741" ry="1.091749" fill="#5A668A" fill-opacity="1.000000"/>
	<ellipse id="ellipse44-5" cx="8.821930" cy="15.185059" rx="1.102741" ry="1.091749" fill="#5A668A" fill-opacity="1.000000"/>
	<rect id="rect46-3" x="9.924652" y="16.375977" width="2.205481" height="1.190999" transform="rotate(180 9.924652 16.375977)" fill="#5A668A" fill-opacity="1.000000"/>
	<ellipse id="ellipse48-2" cx="12.731628" cy="12.902344" rx="1.102741" ry="1.091749" fill="#5A668A" fill-opacity="1.000000"/>
	<ellipse id="ellipse50-8" cx="12.731628" cy="9.031738" rx="1.102741" ry="1.091749" fill="#5A668A" fill-opacity="1.000000"/>
	<rect id="rect52-3" x="13.834381" y="12.902344" width="2.205481" height="3.870746" transform="rotate(180 13.834381 12.902344)" fill="#5A668A" fill-opacity="1.000000"/>
	<ellipse id="ellipse54-7" cx="8.821930" cy="5.557861" rx="1.102741" ry="1.091749" fill="#5A668A" fill-opacity="1.000000"/>
	<ellipse id="ellipse56-5" cx="8.821930" cy="11.909912" rx="1.102741" ry="1.091749" fill="#5A668A" fill-opacity="1.000000"/>
	<path id="Podcasts-1" d="M69.6013 12.802L70.9501 12.802L70.9501 8.81152L73.1786 8.81152C74.0681 8.81152 74.8378 8.53394 75.4878 7.97876C76.1378 7.42383 76.4628 6.72437 76.4628 5.88037C76.4628 5.03638 76.1378 4.33691 75.4878 3.78174C74.8378 3.22681 74.0681 2.94922 73.1786 2.94922L69.6013 2.94922L69.6013 12.802ZM70.9501 7.60034L73.208 7.60034C73.7749 7.60034 74.2294 7.42163 74.5715 7.06372C74.9136 6.70605 75.0846 6.31152 75.0846 5.88037C75.0846 5.44922 74.9136 5.05469 74.5715 4.69678C74.2294 4.33911 73.7749 4.16016 73.208 4.16016L70.9501 4.16016L70.9501 7.60034ZM80.2349 5.83911C79.1597 5.83911 78.2752 6.18311 77.5812 6.87109C76.8872 7.55005 76.5402 8.40308 76.5402 9.43066C76.5402 10.4583 76.8872 11.3137 77.5812 11.9971C78.2752 12.6807 79.1597 13.0222 80.2349 13.0222C81.3101 13.0222 82.1947 12.6807 82.8886 11.9971C83.5826 11.3137 83.9296 10.4583 83.9296 9.43066C83.9296 8.40308 83.5826 7.54761 82.8886 6.86426C82.1947 6.18066 81.3101 5.83911 80.2349 5.83911ZM78.5782 11.2058C79.0473 11.6462 79.5996 11.8665 80.2349 11.8665C80.8702 11.8665 81.42 11.6438 81.8843 11.199C82.3486 10.7539 82.5807 10.1646 82.5807 9.43066C82.5807 8.69678 82.3486 8.10742 81.8843 7.66235C81.42 7.21753 80.8702 6.99487 80.2349 6.99487C79.5996 6.99487 79.0498 7.21753 78.5855 7.66235C78.1212 8.10742 77.8891 8.69678 77.8891 9.43066C77.8891 10.1646 78.1188 10.7563 78.5782 11.2058ZM85.5905 11.9902C86.2649 12.6782 87.0664 13.0222 87.9949 13.0222C88.5423 13.0222 89.0334 12.9121 89.4684 12.6921C89.9034 12.4719 90.2284 12.1965 90.4434 11.8665L90.502 11.8665L90.502 12.802L91.7922 12.802L91.7922 2.94922L90.4434 2.94922L90.4434 6.05933L90.502 6.99487L90.4434 6.99487C90.2284 6.66479 89.9034 6.3894 89.4684 6.16919C89.0334 5.94922 88.5423 5.83911 87.9949 5.83911C87.0664 5.83911 86.2649 6.18311 85.5905 6.87109C84.916 7.55908 84.5788 8.41235 84.5788 9.43066C84.5788 10.449 84.916 11.3022 85.5905 11.9902ZM88.2148 11.8665C88.8502 11.8665 89.3902 11.6462 89.835 11.2058C90.2797 10.7654 90.502 10.1738 90.502 9.43066C90.502 8.6875 90.2797 8.09595 89.835 7.65552C89.3902 7.21509 88.8502 6.99487 88.2148 6.99487C87.5893 6.99487 87.0517 7.21753 86.6021 7.66235C86.1525 8.10742 85.9277 8.69678 85.9277 9.43066C85.9277 10.1646 86.1525 10.7539 86.6021 11.199C87.0517 11.6438 87.5893 11.8665 88.2148 11.8665ZM93.8196 11.9971C94.5136 12.6807 95.3982 13.0222 96.4734 13.0222C97.2749 13.0222 97.9468 12.8364 98.4893 12.4651C99.0318 12.0935 99.4252 11.6323 99.6696 11.082L98.4673 10.6003C98.0861 11.4443 97.3922 11.8665 96.3854 11.8665C95.7892 11.8665 95.2638 11.637 94.8093 11.1782C94.3548 10.7197 94.1275 10.137 94.1275 9.43066C94.1275 8.72437 94.3548 8.1416 94.8093 7.68311C95.2638 7.22437 95.7892 6.99487 96.3854 6.99487C97.3531 6.99487 98.0226 7.41699 98.394 8.26099L99.6256 7.7793C99.3812 7.21973 98.9951 6.75635 98.4673 6.3894C97.9395 6.02246 97.2749 5.83911 96.4734 5.83911C95.3982 5.83911 94.5136 6.18066 93.8196 6.86426C93.1257 7.54761 92.7787 8.40308 92.7787 9.43066C92.7787 10.4583 93.1257 11.3137 93.8196 11.9971ZM100.957 12.4031C101.47 12.8159 102.107 13.0222 102.87 13.0222L102.87 13.0222C103.906 13.0222 104.693 12.637 105.23 11.8665L105.289 11.8665L105.289 12.802L106.579 12.802L106.579 8.72876C106.579 7.81152 106.276 7.10059 105.67 6.59595C105.064 6.09131 104.302 5.83911 103.383 5.83911C102.582 5.83911 101.936 6.01099 101.448 6.35498C100.959 6.69922 100.632 7.073 100.465 7.47656L101.697 7.97192C101.814 7.66919 102.032 7.43066 102.349 7.25635C102.667 7.08203 103.021 6.99487 103.412 6.99487C103.94 6.99487 104.385 7.14404 104.747 7.44214C105.108 7.74023 105.289 8.13721 105.289 8.63257L105.289 8.8252C104.781 8.55005 104.131 8.41235 103.339 8.41235C102.45 8.41235 101.702 8.62109 101.096 9.03857C100.49 9.45581 100.187 10.0315 100.187 10.7654C100.187 11.4443 100.443 11.9902 100.957 12.4031ZM103.09 11.8665C103.647 11.8665 104.153 11.6714 104.607 11.2815C105.062 10.8916 105.289 10.4307 105.289 9.89844C104.908 9.60498 104.336 9.45825 103.574 9.45825C102.919 9.45825 102.425 9.59131 102.093 9.85718C101.76 10.1233 101.594 10.4353 101.594 10.793C101.594 11.1233 101.746 11.3848 102.049 11.5774Q102.155 11.6448 102.268 11.6965Q102.64 11.8665 103.09 11.8665ZM108.541 12.4719C109.064 12.8389 109.726 13.0222 110.527 13.0222C111.358 13.0222 112.037 12.8206 112.565 12.4167C113.093 12.0132 113.357 11.5085 113.357 10.9031C113.357 10.4536 113.196 10.0498 112.873 9.69214C112.551 9.33423 112.052 9.08203 111.378 8.9353L109.955 8.61865C109.32 8.4812 109.002 8.21973 109.002 7.83447C109.002 7.56836 109.139 7.35742 109.413 7.20142C109.687 7.04541 110.024 6.96753 110.425 6.96753C111.255 6.96753 111.803 7.26562 112.067 7.86182L113.24 7.40771C113.025 6.90332 112.668 6.51562 112.169 6.24487C111.671 5.97437 111.104 5.83911 110.469 5.83911C109.696 5.83911 109.029 6.0249 108.467 6.39624C107.905 6.76782 107.624 7.25195 107.624 7.84814C107.624 8.37109 107.83 8.78613 108.24 9.09351C108.651 9.40088 109.086 9.60962 109.545 9.71973L110.996 10.0498C111.651 10.2058 111.979 10.5039 111.979 10.9443C111.979 11.2288 111.844 11.458 111.576 11.6323C111.307 11.8066 110.962 11.8938 110.542 11.8938C109.623 11.8938 108.973 11.4719 108.592 10.6279L107.39 11.0957C107.634 11.6462 108.018 12.105 108.541 12.4719ZM115.67 12.3479C116.066 12.7241 116.64 12.9121 117.393 12.9121C117.823 12.9121 118.185 12.8525 118.478 12.7334L118.009 11.6462C117.843 11.7195 117.637 11.7563 117.393 11.7563C116.748 11.7563 116.425 11.3894 116.425 10.6553L116.425 7.21509L118.185 7.21509L118.185 6.05933L116.425 6.05933L116.425 3.99512L115.076 3.99512L115.076 6.05933L113.816 6.05933L113.816 7.21509L115.076 7.21509L115.076 10.7517C115.076 11.4397 115.274 11.9719 115.67 12.3479ZM120.131 12.4719C120.654 12.8389 121.317 13.0222 122.118 13.0222C122.949 13.0222 123.628 12.8206 124.156 12.4167C124.684 12.0132 124.948 11.5085 124.948 10.9031C124.948 10.4536 124.786 10.0498 124.464 9.69214C124.141 9.33423 123.643 9.08203 122.968 8.9353L121.546 8.61865C120.911 8.4812 120.593 8.21973 120.593 7.83447C120.593 7.56836 120.73 7.35742 121.004 7.20142C121.277 7.04541 121.615 6.96753 122.015 6.96753C122.846 6.96753 123.394 7.26562 123.658 7.86182L124.83 7.40771C124.615 6.90332 124.259 6.51562 123.76 6.24487C123.262 5.97437 122.695 5.83911 122.059 5.83911C121.287 5.83911 120.62 6.0249 120.058 6.39624C119.496 6.76782 119.215 7.25195 119.215 7.84814C119.215 8.37109 119.42 8.78613 119.831 9.09351C120.241 9.40088 120.676 9.60962 121.136 9.71973L122.587 10.0498C123.242 10.2058 123.57 10.5039 123.57 10.9443C123.57 11.2288 123.435 11.458 123.166 11.6323C122.898 11.8066 122.553 11.8938 122.133 11.8938C121.214 11.8938 120.564 11.4719 120.183 10.6279L118.98 11.0957C119.225 11.6462 119.608 12.105 120.131 12.4719Z" clip-rule="evenodd" fill="#5A668A" fill-opacity="1.000000" fill-rule="evenodd"/>
	<path id="Combined-Shape-6" d="M22.5905 7.66577C22.5905 4.71997 25.0838 2.33276 28.0593 2.33276C29.701 2.33276 30.8707 2.97266 31.7531 3.80566L30.7065 4.83179C30.0806 4.24243 29.229 3.7854 28.0593 3.7854C25.8943 3.7854 24.2014 5.51221 24.2014 7.65576C24.2014 9.79907 25.8943 11.5259 28.0593 11.5259C29.465 11.5259 30.2653 10.9673 30.7783 10.4592C31.199 10.0427 31.476 9.4436 31.5786 8.63086L28.0593 8.63086L28.0593 7.17822L33.0151 7.17822C33.0664 7.44238 33.0972 7.74707 33.0972 8.09253C33.0972 9.18945 32.7997 10.5405 31.8249 11.4954C30.8707 12.4707 29.6599 12.9888 28.0593 12.9888C25.0838 12.9888 22.5905 10.6016 22.5905 7.66577ZM37.0475 6.19287C38.9662 6.19287 40.5258 7.63525 40.5258 9.62646C40.5258 11.6072 38.9662 13.0598 37.0475 13.0598C35.1288 13.0598 33.5692 11.6072 33.5692 9.62646C33.5692 7.63525 35.1288 6.19287 37.0475 6.19287ZM37.0475 11.6987C36.0009 11.6987 35.0877 10.8452 35.0877 9.61621C35.0877 8.37695 35.9907 7.53369 37.0475 7.53369C38.0941 7.53369 39.0072 8.37695 39.0072 9.61621C39.0072 10.8452 38.0941 11.6987 37.0475 11.6987ZM44.6402 6.19287C46.5589 6.19287 48.1185 7.63525 48.1185 9.62646C48.1185 11.6072 46.5589 13.0598 44.6402 13.0598C42.7215 13.0598 41.1619 11.6072 41.1619 9.62646C41.1619 7.63525 42.7215 6.19287 44.6402 6.19287ZM44.6402 11.6987C43.5937 11.6987 42.6805 10.8452 42.6805 9.61621C42.6805 8.37695 43.5834 7.53369 44.6402 7.53369C45.6971 7.53369 46.6 8.37695 46.6 9.61621C46.6 10.8452 45.6868 11.6987 44.6402 11.6987ZM53.9567 6.30469L55.4137 6.30469L55.4137 12.4707C55.4137 15.0103 53.9054 16.0464 52.1201 16.0464C50.4374 16.0464 49.4216 14.929 49.042 14.0146L50.3656 13.4661C50.6016 14.0249 51.1761 14.6851 52.1099 14.6851C53.2488 14.6851 53.9567 13.9841 53.9567 12.6738L53.9567 12.176L53.9054 12.176C53.5668 12.5925 52.9102 12.9583 52.0791 12.9583C50.3451 12.9583 48.7547 11.4548 48.7547 9.53491C48.7547 7.59473 50.3451 6.09131 52.0791 6.09131C52.9102 6.09131 53.5668 6.45703 53.9054 6.86328L53.9567 6.86328L53.9567 6.30469ZM54.0594 9.55737C54.0594 10.7544 53.2423 11.6072 52.2125 11.6072C51.1659 11.6072 50.2835 10.7336 50.2835 9.53491C50.2835 8.32617 51.1659 7.44238 52.2125 7.44238C53.2488 7.44238 54.0593 8.32617 54.0593 9.53491C54.0594 9.54248 54.0594 9.5498 54.0594 9.55737ZM56.45 12.8262L56.45 2.73901L57.9686 2.73901L57.9686 12.8262L56.45 12.8262ZM62.1446 11.6987C62.9244 11.6987 63.4579 11.3228 63.8581 10.7539L65.038 11.5361C64.6481 12.0947 63.735 13.0598 62.1446 13.0598C60.1746 13.0598 58.7073 11.5461 58.7073 9.62646C58.7073 7.58447 60.1951 6.19287 61.9804 6.19287C63.776 6.19287 64.6584 7.60498 64.9457 8.37695L65.0996 8.76294L60.4619 10.6626C60.821 11.343 61.3648 11.6987 62.1446 11.6987ZM62.0317 7.51343C62.6371 7.51343 63.1501 7.80811 63.3143 8.24487L60.2156 9.51465C60.1746 8.19409 61.2519 7.51343 62.0317 7.51343Z" clip-rule="evenodd" fill="#5A668A" fill-opacity="1.000000" fill-rule="evenodd"/>
</svg>
